<mxfile host="www.draw.io" modified="2019-11-11T16:41:15.929Z" agent="Mozilla/5.0 (X11; Ubuntu; Linux x86_64; rv:70.0) Gecko/20100101 Firefox/70.0" etag="C54HHEKvO1oO1Wg5oOWJ" version="12.2.3" type="github" pages="1">
  <diagram id="EHpGFpPfIRVwfhSs7-oj" name="Page-1">
    <mxGraphModel dx="257" dy="396" grid="1" gridSize="10" guides="1" tooltips="1" connect="1" arrows="1" fold="1" page="1" pageScale="1" pageWidth="850" pageHeight="1100" math="0" shadow="0">
      <root>
        <mxCell id="0"/>
        <mxCell id="1" parent="0"/>
        <mxCell id="PzTGq6wgcMx0P_qnfSlB-1" value="&lt;h1&gt;&lt;font color=&quot;#3333FF&quot;&gt;Types&lt;/font&gt;&lt;/h1&gt;" style="rounded=0;whiteSpace=wrap;html=1;fillColor=#dae8fc;strokeColor=#6c8ebf;" vertex="1" parent="1">
          <mxGeometry x="20" y="20" width="120" height="60" as="geometry"/>
        </mxCell>
        <mxCell id="PzTGq6wgcMx0P_qnfSlB-2" value="&lt;h1&gt;&lt;font color=&quot;#00CC00&quot;&gt;Numbers&lt;/font&gt;&lt;/h1&gt;" style="rounded=0;whiteSpace=wrap;html=1;fillColor=#d5e8d4;strokeColor=#82b366;" vertex="1" parent="1">
          <mxGeometry x="20" y="140" width="120" height="60" as="geometry"/>
        </mxCell>
        <mxCell id="PzTGq6wgcMx0P_qnfSlB-3" value="" style="shape=flexArrow;endArrow=classic;startArrow=classic;html=1;entryX=0.5;entryY=1;entryDx=0;entryDy=0;exitX=0.5;exitY=0;exitDx=0;exitDy=0;fillColor=#1ba1e2;strokeColor=#006EAF;gradientColor=#00FF00;" edge="1" parent="1" source="PzTGq6wgcMx0P_qnfSlB-2" target="PzTGq6wgcMx0P_qnfSlB-1">
          <mxGeometry width="50" height="50" relative="1" as="geometry">
            <mxPoint x="20" y="260" as="sourcePoint"/>
            <mxPoint x="70" y="210" as="targetPoint"/>
          </mxGeometry>
        </mxCell>
        <mxCell id="PzTGq6wgcMx0P_qnfSlB-4" value="&lt;h1&gt;&lt;font color=&quot;#FF0000&quot;&gt;Data&lt;/font&gt;&lt;/h1&gt;" style="rounded=0;whiteSpace=wrap;html=1;fillColor=#f8cecc;strokeColor=#b85450;" vertex="1" parent="1">
          <mxGeometry x="20" y="260" width="120" height="60" as="geometry"/>
        </mxCell>
        <mxCell id="PzTGq6wgcMx0P_qnfSlB-5" value="" style="shape=flexArrow;endArrow=classic;startArrow=classic;html=1;entryX=0.5;entryY=1;entryDx=0;entryDy=0;exitX=0.5;exitY=0;exitDx=0;exitDy=0;fillColor=#00CC00;strokeColor=#00CC00;gradientColor=#CC0000;" edge="1" parent="1" source="PzTGq6wgcMx0P_qnfSlB-4" target="PzTGq6wgcMx0P_qnfSlB-2">
          <mxGeometry width="50" height="50" relative="1" as="geometry">
            <mxPoint x="90" y="140" as="sourcePoint"/>
            <mxPoint x="90" y="90" as="targetPoint"/>
          </mxGeometry>
        </mxCell>
      </root>
    </mxGraphModel>
  </diagram>
</mxfile>
